<?xml version="1.0" encoding="UTF-8" standalone="no"?>
<!-- Created with Inkscape (http://www.inkscape.org/) -->

<svg
   xmlns:dc="http://purl.org/dc/elements/1.1/"
   xmlns:cc="http://creativecommons.org/ns#"
   xmlns:rdf="http://www.w3.org/1999/02/22-rdf-syntax-ns#"
   xmlns:svg="http://www.w3.org/2000/svg"
   xmlns="http://www.w3.org/2000/svg"
   xmlns:xlink="http://www.w3.org/1999/xlink"
   xmlns:sodipodi="http://sodipodi.sourceforge.net/DTD/sodipodi-0.dtd"
   xmlns:inkscape="http://www.inkscape.org/namespaces/inkscape"
   width="680"
   height="365"
   id="svg2"
   version="1.1"
   inkscape:version="0.48.1 r9760"
   sodipodi:docname="penguin_in_the_circle_orange.svg"
   inkscape:export-filename="/home/maxo/MyBox/lug/grafica/logo/lugscandiano.png"
   inkscape:export-xdpi="72"
   inkscape:export-ydpi="72">
  <defs
     id="defs4">
    <linearGradient
       id="linearGradient3630">
      <stop
         style="stop-color:#edd400;stop-opacity:1;"
         offset="0"
         id="stop3632" />
      <stop
         style="stop-color:#ba5e14;stop-opacity:1;"
         offset="1"
         id="stop3634" />
    </linearGradient>
    <linearGradient
       id="linearGradient3645">
      <stop
         style="stop-color:#ce5c00;stop-opacity:1;"
         offset="0"
         id="stop3647" />
      <stop
         style="stop-color:#ffffff;stop-opacity:1;"
         offset="1"
         id="stop3649" />
    </linearGradient>
    <inkscape:perspective
       sodipodi:type="inkscape:persp3d"
       inkscape:vp_x="0 : 526.18109 : 1"
       inkscape:vp_y="0 : 1000 : 0"
       inkscape:vp_z="744.09448 : 526.18109 : 1"
       inkscape:persp3d-origin="372.04724 : 350.78739 : 1"
       id="perspective10" />
    <inkscape:perspective
       id="perspective2928"
       inkscape:persp3d-origin="0.5 : 0.33333333 : 1"
       inkscape:vp_z="1 : 0.5 : 1"
       inkscape:vp_y="0 : 1000 : 0"
       inkscape:vp_x="0 : 0.5 : 1"
       sodipodi:type="inkscape:persp3d" />
    <inkscape:perspective
       id="perspective3740"
       inkscape:persp3d-origin="0.5 : 0.33333333 : 1"
       inkscape:vp_z="1 : 0.5 : 1"
       inkscape:vp_y="0 : 1000 : 0"
       inkscape:vp_x="0 : 0.5 : 1"
       sodipodi:type="inkscape:persp3d" />
    <linearGradient
       inkscape:collect="always"
       xlink:href="#linearGradient3630"
       id="linearGradient3636"
       x1="356.42856"
       y1="414.70584"
       x2="356.42856"
       y2="881.7804"
       gradientUnits="userSpaceOnUse" />
  </defs>
  <sodipodi:namedview
     id="base"
     pagecolor="#ffffff"
     bordercolor="#666666"
     borderopacity="1.0"
     inkscape:pageopacity="0.0"
     inkscape:pageshadow="2"
     inkscape:zoom="0.9899495"
     inkscape:cx="307.78175"
     inkscape:cy="59.948554"
     inkscape:document-units="px"
     inkscape:current-layer="layer1"
     showgrid="false"
     inkscape:window-width="1680"
     inkscape:window-height="995"
     inkscape:window-x="0"
     inkscape:window-y="26"
     inkscape:window-maximized="1" />
  <metadata
     id="metadata7">
    <rdf:RDF>
      <cc:Work
         rdf:about="">
        <dc:format>image/svg+xml</dc:format>
        <dc:type
           rdf:resource="http://purl.org/dc/dcmitype/StillImage" />
        <dc:title></dc:title>
      </cc:Work>
    </rdf:RDF>
  </metadata>
  <g
     inkscape:label="Livello 1"
     inkscape:groupmode="layer"
     id="layer1"
     transform="translate(0,-687.36218)">
    <g
       id="g3334">
      <path
         style="fill:#ce5c00;fill-opacity:1;stroke:#ce5c00;stroke-width:8.44500923;stroke-miterlimit:4"
         d="m 248.82334,856.15613 404.06761,0 c 11.96687,0 21.60084,9.63397 21.60084,21.60084 l 0,48.35331 c 0,11.96687 -9.63397,21.60084 -21.60084,21.60084 l -404.06761,0 c -11.96686,0 -21.60084,-9.63397 -21.60084,-21.60084 l 0,-48.35331 c 0,-11.96687 9.63398,-21.60084 21.60084,-21.60084 z"
         id="rect3803" />
      <g
         transform="translate(-20.571429,415.42857)"
         id="g3889">
        <path
           sodipodi:type="arc"
           style="fill:url(#linearGradient3636);fill-opacity:1;stroke:#ce5c00;stroke-width:13.99377632000000027;stroke-miterlimit:4;stroke-dasharray:none"
           id="path3728"
           sodipodi:cx="356.42856"
           sodipodi:cy="550.2193"
           sodipodi:rx="190.71428"
           sodipodi:ry="190.71428"
           d="m 547.14284,550.2193 c 0,105.32859 -85.38569,190.71428 -190.71428,190.71428 -105.32859,0 -190.71428,-85.38569 -190.71428,-190.71428 0,-105.32859 85.38569,-190.71428 190.71428,-190.71428 105.32859,0 190.71428,85.38569 190.71428,190.71428 z"
           transform="matrix(0.7146034,0,0,0.7146034,-89.153997,100.52093)" />
        <path
           style="fill:#eeeeec;stroke:#ce5c00;stroke-width:4;stroke-linecap:butt;stroke-linejoin:miter;stroke-miterlimit:4;stroke-opacity:1;stroke-dasharray:none"
           d="m 179.10464,314.51253 c -1.22371,0.0266 -2.74532,0.35638 -4.65625,1.03125 -16.26992,-1.71292 -31.4228,9.37126 -32.03125,25.78125 0.0953,0.18403 0.18909,0.37704 0.28125,0.5625 2.39678,3.36498 4.2468,11.8492 5.96875,16.6875 0.86875,2.441 1.69496,4.21218 2.5625,3.40625 -0.0165,-0.9083 3.08599,1.50365 3.49921,-2.07598 3.65804,-0.36899 2.08406,-2.28766 5.8217,-2.36152 -3.50825,8.06793 -7.89886,15.30247 -12.28966,22.65625 -3.65144,18.22895 4.52651,37.96294 -4.59375,55.21875 -8.20717,21.66681 11.95351,40.74898 9.71875,62.34375 0.82096,24.40655 2.06697,50.99705 -11.96875,72.40625 -10.39584,15.28536 -16.31455,-4.28906 -13,-14.1875 3.80124,-22.03877 -7.55115,-42.49087 -11.46875,-63.65625 -2.63788,-14.95693 -5.14574,4.55613 -2.96875,9.375 7.37951,20.09247 10.91289,41.55754 10.375,62.96875 -9.67453,19.13767 2.09921,39.50004 5.84375,58.53125 0.2638,0.72385 0.48935,1.46244 0.75,2.1875 -1.97562,-0.51787 -3.99796,-0.92799 -5.9375,-1.53125 4.26749,1.32733 8.62659,2.46728 13.0625,3.375 4.43591,0.90772 8.94974,1.59722 13.53125,2.0625 4.58151,0.46528 9.23324,0.6875 13.9375,0.6875 4.70426,0 9.35599,-0.22222 13.9375,-0.6875 4.58151,-0.46528 9.09534,-1.15478 13.53125,-2.0625 4.43591,-0.90772 8.79501,-2.04767 13.0625,-3.375 4.26749,-1.32733 8.45502,-2.8384 12.53125,-4.5625 3.90391,-1.65121 7.69828,-3.50535 11.40625,-5.5 11.5464,-53.973 13.98835,-109.97494 8.6875,-164.78125 -3.42717,-29.78983 -13.23243,-58.79438 -29.09375,-84.15625 -3.71042,-5.93288 -7.64626,-11.73141 -12.03125,-17.21875 -3.47137,-10.20009 -0.01,-20.33647 3.91719,-29.84883 -4.87802,5.58117 -8.30728,11.19096 -13.66719,16.19258 -14.0424,7.15675 3.11044,-19.72567 -8.71875,-19.46875 z"
           id="path3769"
           sodipodi:nodetypes="ccccscccccccccccccssssssssccscccc" />
        <path
           style="fill:#ce5c00;fill-rule:evenodd;stroke:none"
           d="m 151.69839,358.13753 c 3.65804,-0.36899 7.38736,-0.51989 11.125,-0.59375 1.99849,-4.59592 3.00109,-9.45033 1.90625,-14.78125 -6.69376,-10.4649 -11.88527,6.05482 -13.03125,15.375 z"
           id="path3762" />
        <path
           style="fill:#ce5c00;fill-rule:evenodd;stroke:none"
           d="m 244.72964,274.57503 c -7.46251,0.21067 -18.12581,4.53188 -24.5625,6.65625 -15.89864,2.96472 -33.28064,-4.10438 -48.3125,6.125 -20.12662,8.03142 -36.79297,27.13008 -36.9375,49.34375 -3.702,9.02251 -7.14327,18.16891 -10.875,27.1875 -4.46092,10.78085 -9.34847,21.36773 -15.75,31.1875 -27.210317,60.58421 -22.513827,129.95788 -6.84375,192.9375 2.31525,9.92818 4.87597,19.81243 7.65625,29.625 1.15077,0.52524 2.23858,1.16237 3.40625,1.65625 4.07623,1.7241 8.23251,3.23517 12.5,4.5625 1.93954,0.60326 3.96188,1.01338 5.9375,1.53125 -0.26065,-0.72506 -0.4862,-1.46365 -0.75,-2.1875 -3.74454,-19.03121 -15.51828,-39.39358 -5.84375,-58.53125 0.53789,-21.41121 -2.99549,-42.87628 -10.375,-62.96875 -2.17699,-4.81887 0.33087,-24.33193 2.96875,-9.375 3.9176,21.16538 15.26999,41.61748 11.46875,63.65625 -3.31455,9.89844 2.60416,29.47286 13,14.1875 14.03572,-21.4092 12.78971,-47.9997 11.96875,-72.40625 2.23476,-21.59477 -17.92592,-40.67694 -9.71875,-62.34375 9.12026,-17.25581 0.94231,-36.9898 4.59375,-55.21875 4.3908,-7.35378 8.27633,-14.84086 11.78458,-22.90879 -3.73764,0.0739 -4.68904,0.4773 -8.34708,0.84629 -0.16068,1.30679 -0.48528,2.93545 -0.46875,3.84375 -0.86754,0.80593 -1.69375,-0.96525 -2.5625,-3.40625 -1.72195,-4.8383 -3.57197,-13.32252 -5.96875,-16.6875 -0.0922,-0.18546 -0.18594,-0.37847 -0.28125,-0.5625 0.60845,-16.40999 15.76133,-27.49417 32.03125,-25.78125 20.38322,-7.19857 -2.12006,26.3346 13.375,18.4375 9.74505,-9.09364 19.82641,-18.50406 26.125,-30.5625 8.15858,-14.05603 23.46073,-21.0994 38.28125,-26 -1.38407,-2.19702 -4.10795,-2.93951 -7.5,-2.84375 z"
           id="path3760"
           sodipodi:nodetypes="ccccscccsscccccccccccccsccccccc" />
        <path
           style="fill:none;stroke:#ce5c00;stroke-width:10;stroke-miterlimit:4;stroke-dasharray:none"
           d="m 29.260893,493.70003 c 0,75.26817 61.01308,136.28125 136.281247,136.28125 75.26817,0 136.28125,-61.01308 136.28125,-136.28125 0,-0.76658 -0.0186,-1.51768 -0.0312,-2.28125"
           id="path3781"
           sodipodi:nodetypes="cssc" />
      </g>
      <g
         id="text3795"
         style="font-size:45.07368469px;font-style:normal;font-variant:normal;font-weight:normal;font-stretch:normal;text-align:start;line-height:125%;writing-mode:lr-tb;text-anchor:start;fill:#eeeeec;fill-opacity:1;stroke:none;font-family:Nasalization;-inkscape-font-specification:Nasalization"
         transform="scale(0.8983667,1.1131312)">
        <path
           id="path2849"
           style=""
           d="m 345.9707,812.37823 c -2.07341,0 -3.89138,-0.28546 -5.45392,-0.8564 -1.56256,-0.57093 -2.8697,-1.38225 -3.92141,-2.43397 -1.02167,-1.08177 -1.80295,-2.37388 -2.34383,-3.87634 -0.51084,-1.50245 -0.76626,-3.20022 -0.76625,-5.09333 l 0,-16.04623 4.9581,0 0,16.09131 c -1e-5,2.28374 0.64605,4.07166 1.93817,5.36376 1.2921,1.26207 3.11007,1.8931 5.45392,1.8931 l 8.60907,0 0,4.9581 -8.47385,0" />
        <path
           id="path2851"
           style=""
           d="m 358.04692,784.07196 4.95811,0 0,28.30627 -4.95811,0 0,-28.30627" />
        <path
           id="path2853"
           style=""
           d="m 395.46794,805.66226 c -3e-5,1.05172 -0.19535,2.01329 -0.58596,2.88471 -0.36062,0.84138 -0.87145,1.56256 -1.5325,2.16354 -0.66111,0.60098 -1.44239,1.06674 -2.34383,1.39728 -0.87145,0.33054 -1.818,0.49581 -2.83965,0.49581 -1.44237,0 -2.74951,-0.39064 -3.92141,-1.17191 -1.17193,-0.78128 -1.98326,-1.86305 -2.43397,-3.24531 l -5.67929,-17.44351 c -0.1803,-0.57091 -0.40567,-1.00663 -0.6761,-1.30714 -0.24041,-0.30047 -0.58597,-0.45071 -1.0367,-0.45074 -1.41232,3e-5 -2.11847,0.82638 -2.11846,2.47906 l 0,20.91418 -5.27362,0 0,-21.45507 c -1e-5,-1.0517 0.18029,-1.99824 0.54088,-2.83964 0.39064,-0.8714 0.9165,-1.6076 1.57758,-2.20861 0.66108,-0.60096 1.42733,-1.06672 2.29876,-1.39729 0.90146,-0.33051 1.86304,-0.49578 2.88471,-0.49581 1.44235,3e-5 2.73446,0.40569 3.87634,1.21699 1.1719,0.78131 1.98323,1.84805 2.43398,3.20023 l 5.72436,17.44352 c 0.18027,0.57094 0.39061,1.00665 0.63103,1.30714 0.27042,0.30049 0.63101,0.45074 1.08177,0.45073 1.41228,10e-6 2.11844,-0.82634 2.11846,-2.47905 l 0,-21.04941 5.27362,0 0,21.5903" />
        <path
           id="path2855"
           style=""
           d="m 423.31009,801.6507 c -2e-5,1.62266 -0.25544,3.09507 -0.76625,4.41722 -0.48081,1.29212 -1.21701,2.41896 -2.20861,3.38053 -0.96159,0.93152 -2.19361,1.6527 -3.69604,2.16353 -1.47243,0.51084 -3.20025,0.76625 -5.18348,0.76625 -1.92315,0 -3.63595,-0.25541 -5.1384,-0.76625 -1.47241,-0.54088 -2.71945,-1.27708 -3.74111,-2.20861 -0.99163,-0.93152 -1.75788,-2.04333 -2.29876,-3.33545 -0.51084,-1.32215 -0.76625,-2.77954 -0.76625,-4.37215 l 0,-17.62381 4.9581,0 0,17.53366 c 0,1.71281 0.616,3.1101 1.84802,4.19186 1.26206,1.08177 2.98988,1.62265 5.18348,1.62265 l 0.13522,0 c 2.25367,0 3.93642,-0.54088 5.04825,-1.62265 1.1118,-1.08176 1.66771,-2.47905 1.66773,-4.19186 l 0,-17.53366 4.9581,0 0,17.57874" />
        <path
           id="path2857"
           style=""
           d="m 451.85019,812.37823 -5.94973,0 -6.94135,-11.44871 -6.94134,11.44871 -5.94973,0 9.10489,-14.51372 -9.10489,-13.79255 5.90465,0 6.98642,11.35857 6.98643,-11.35857 5.90465,0 -9.14996,13.79255 9.14996,14.51372" />
        <path
           id="path2859"
           style=""
           d="m 490.83259,801.6507 c -2e-5,1.62266 -0.25544,3.09507 -0.76625,4.41722 -0.48081,1.29212 -1.21701,2.41896 -2.20861,3.38053 -0.96159,0.93152 -2.19361,1.6527 -3.69604,2.16353 -1.47243,0.51084 -3.20025,0.76625 -5.18348,0.76625 -1.92315,0 -3.63595,-0.25541 -5.1384,-0.76625 -1.47241,-0.54088 -2.71945,-1.27708 -3.74111,-2.20861 -0.99163,-0.93152 -1.75788,-2.04333 -2.29876,-3.33545 -0.51084,-1.32215 -0.76626,-2.77954 -0.76625,-4.37215 l 0,-17.62381 4.9581,0 0,17.53366 c 0,1.71281 0.616,3.1101 1.84802,4.19186 1.26206,1.08177 2.98988,1.62265 5.18348,1.62265 l 0.13522,0 c 2.25367,0 3.93642,-0.54088 5.04825,-1.62265 1.1118,-1.08176 1.66771,-2.47905 1.66773,-4.19186 l 0,-17.53366 4.9581,0 0,17.57874" />
        <path
           id="path2861"
           style=""
           d="m 519.32761,804.08468 c -3e-5,2.73447 -0.79633,4.80786 -2.38891,6.22017 -1.56258,1.38226 -3.75616,2.07338 -6.58076,2.07338 l -14.51372,0 0,-4.9581 15.46027,0 c 0.87141,0 1.59258,-0.33054 2.16354,-0.99162 0.60096,-0.66108 0.90145,-1.4724 0.90147,-2.43398 -2e-5,-0.90146 -0.30051,-1.68274 -0.90147,-2.34383 -0.57096,-0.69112 -1.29213,-1.03669 -2.16354,-1.0367 l -7.97804,0 c -1.65271,10e-6 -3.05,-0.24038 -4.19185,-0.72118 -1.11183,-0.51082 -2.02832,-1.15687 -2.7495,-1.93816 -0.69113,-0.78127 -1.20197,-1.65269 -1.5325,-2.61428 -0.3005,-0.9916 -0.45074,-1.9682 -0.45074,-2.92979 0,-1.14184 0.16527,-2.20859 0.49581,-3.20023 0.33054,-1.02165 0.8564,-1.90809 1.57758,-2.65935 0.72117,-0.78125 1.63767,-1.38223 2.74949,-1.80294 1.14186,-0.45071 2.5091,-0.67608 4.10171,-0.67611 l 14.10806,0 0,4.95811 -14.87431,0 c -0.87144,2e-5 -1.62267,0.33056 -2.25369,0.99162 -0.63104,0.6611 -0.94655,1.42735 -0.94655,2.29876 0,0.93154 0.30049,1.72784 0.90148,2.3889 0.63102,0.63105 1.4123,0.94656 2.34383,0.94655 l 7.84282,0 c 2.73445,10e-6 4.89799,0.70617 6.49061,2.11846 1.59258,1.38227 2.38888,3.42561 2.38891,6.13002 l 0,0.1803" />
        <path
           id="path2863"
           style=""
           d="m 545.51753,789.03007 -14.87431,0 c -0.87143,2e-5 -1.62266,0.33056 -2.25369,0.99162 -0.63103,0.6611 -0.94655,1.42735 -0.94654,2.29876 -10e-6,0.93154 0.30048,1.72784 0.90147,2.3889 0.60098,0.63105 1.38225,0.94656 2.34383,0.94655 l 14.82924,0 0,4.9581 -14.87431,0 c -0.87143,10e-6 -1.62266,0.33055 -2.25369,0.99162 -0.63103,0.6611 -0.94655,1.42735 -0.94654,2.29876 -10e-6,1.05173 0.30048,1.90813 0.90147,2.5692 0.60098,0.63104 1.38225,0.94655 2.34383,0.94655 l 14.82924,0 0,4.9581 -14.10806,0 c -1.65271,0 -3.04999,-0.24039 -4.19185,-0.72117 -1.11182,-0.48079 -2.02832,-1.11182 -2.7495,-1.8931 -0.69113,-0.81132 -1.20196,-1.71279 -1.5325,-2.70442 -0.30049,-0.99161 -0.45074,-2.01328 -0.45074,-3.06501 0,-1.11181 0.24039,-2.19358 0.72118,-3.24531 0.48078,-1.08175 1.26206,-1.95318 2.34383,-2.61427 -1.11182,-0.66107 -1.90812,-1.53249 -2.3889,-2.61427 -0.45074,-1.08175 -0.67611,-2.11845 -0.67611,-3.11009 0,-1.20194 0.18029,-2.31376 0.54089,-3.33545 0.36058,-1.02165 0.90147,-1.90809 1.62265,-2.65935 0.72117,-0.7512 1.63767,-1.32213 2.74949,-1.7128 1.14186,-0.42066 2.47905,-0.631 4.01156,-0.63103 l 14.10806,0 0,4.95811" />
        <path
           id="path2865"
           style=""
           d="m 549.65515,803.90438 c -1e-5,-2.70441 0.79629,-4.74775 2.3889,-6.13002 1.5926,-1.41229 3.75613,-2.11845 6.49061,-2.11846 l 5.94973,0 c 0.9315,10e-6 1.69776,-0.3155 2.29876,-0.94655 0.63101,-0.66106 0.94652,-1.45736 0.94654,-2.3889 -2e-5,-0.87141 -0.31553,-1.63766 -0.94654,-2.29876 -0.63105,-0.66106 -1.38228,-0.9916 -2.25369,-0.99162 l -14.87431,0 0,-4.95811 14.10806,0 c 1.56254,3e-5 2.89972,0.2254 4.01156,0.67611 1.14184,0.42071 2.07336,1.02169 2.79457,1.80294 0.72115,0.75126 1.24701,1.6377 1.57757,2.65935 0.36057,0.99164 0.54086,2.05839 0.54089,3.20023 -3e-5,0.99164 -0.1653,1.98326 -0.49581,2.97487 -0.30052,0.96158 -0.81135,1.83301 -1.53251,2.61427 -0.7212,0.78129 -1.65272,1.41232 -2.79457,1.89309 -1.11183,0.4808 -2.47907,0.72119 -4.1017,0.72118 l -5.72436,0 15.32505,6.71598 0,5.49899 -18.75065,-8.42878 0,7.97804 -4.9581,0 0,-8.47385" />
        <path
           id="path2867"
           style=""
           d="m 601.57792,812.37823 c -8.56401,0 -12.846,-4.70268 -12.846,-14.10806 l 0,-0.13522 c 0.0902,-9.3753 4.38717,-14.06296 12.89107,-14.06299 l 10.32188,0 0,4.95811 -11.58394,0 c -2.25369,2e-5 -3.93644,0.75125 -5.04825,2.25368 -1.08178,1.50248 -1.62266,3.84631 -1.62265,7.0315 -10e-6,6.06993 2.2086,9.10488 6.62583,9.10488 l 5.94972,0 c 0.84136,0 1.56254,-0.34556 2.16354,-1.0367 0.60096,-0.69112 0.90145,-1.48742 0.90147,-2.3889 -2e-5,-0.90146 -0.30051,-1.68274 -0.90147,-2.34383 -0.57095,-0.69112 -1.29213,-1.03669 -2.16354,-1.0367 l -4.50736,0 0,-4.9581 4.73273,0 c 1.08175,10e-6 2.10342,0.21036 3.06501,0.63103 0.96155,0.4207 1.7879,1.02168 2.47906,1.80295 0.6911,0.75124 1.23198,1.65271 1.62265,2.70442 0.42066,1.02168 0.631,2.16354 0.63103,3.4256 -3e-5,1.02168 -0.21037,2.02832 -0.63103,3.01993 -0.42072,0.96158 -0.99165,1.833 -1.7128,2.61428 -0.7212,0.75123 -1.56258,1.36723 -2.52413,1.84802 -0.93154,0.45074 -1.92316,0.6761 -2.97486,0.6761 l -4.86796,0" />
        <path
           id="path2869"
           style=""
           d="m 617.96997,803.90438 c -10e-6,-2.70441 0.79629,-4.74775 2.3889,-6.13002 1.5926,-1.41229 3.75613,-2.11845 6.49061,-2.11846 l 5.94973,0 c 0.9315,10e-6 1.69775,-0.3155 2.29876,-0.94655 0.63101,-0.66106 0.94652,-1.45736 0.94654,-2.3889 -2e-5,-0.87141 -0.31553,-1.63766 -0.94654,-2.29876 -0.63105,-0.66106 -1.38228,-0.9916 -2.25369,-0.99162 l -14.87431,0 0,-4.95811 14.10806,0 c 1.56254,3e-5 2.89972,0.2254 4.01156,0.67611 1.14184,0.42071 2.07336,1.02169 2.79457,1.80294 0.72115,0.75126 1.24701,1.6377 1.57757,2.65935 0.36057,0.99164 0.54086,2.05839 0.54089,3.20023 -3e-5,0.99164 -0.1653,1.98326 -0.49581,2.97487 -0.30052,0.96158 -0.81135,1.83301 -1.53251,2.61427 -0.7212,0.78129 -1.65272,1.41232 -2.79457,1.89309 -1.11183,0.4808 -2.47907,0.72119 -4.1017,0.72118 l -5.72436,0 15.32505,6.71598 0,5.49899 -18.75065,-8.42878 0,7.97804 -4.9581,0 0,-8.47385" />
        <path
           id="path2871"
           style=""
           d="m 655.20647,789.03007 c -2.2537,2e-5 -3.93645,0.75125 -5.04826,2.25368 -1.08177,1.50248 -1.62266,3.84631 -1.62265,7.0315 -1e-5,6.06993 2.2086,9.10488 6.62583,9.10488 l 4.77781,0 c 4.4172,0 6.62581,-3.03495 6.62584,-9.10488 -3e-5,-3.18519 -0.55594,-5.52902 -1.66773,-7.0315 -1.08179,-1.50243 -2.74952,-2.25366 -5.00318,-2.25368 l -4.68766,0 m 3.4256,-4.95811 c 8.50387,3e-5 12.80089,4.68769 12.89107,14.06299 l 0,0.13522 c -3e-5,9.40538 -4.28202,14.10806 -12.846,14.10806 l -2.25368,0 c -8.56401,0 -12.84601,-4.70268 -12.846,-14.10806 l 0,-0.13522 c 0.0901,-9.3753 4.38716,-14.06296 12.89107,-14.06299 l 2.16354,0" />
        <path
           id="path2873"
           style=""
           d="m 698.94624,801.6507 c -3e-5,1.62266 -0.25544,3.09507 -0.76625,4.41722 -0.48081,1.29212 -1.21702,2.41896 -2.20861,3.38053 -0.9616,0.93152 -2.19361,1.6527 -3.69605,2.16353 -1.47242,0.51084 -3.20024,0.76625 -5.18347,0.76625 -1.92316,0 -3.63595,-0.25541 -5.1384,-0.76625 -1.47241,-0.54088 -2.71945,-1.27708 -3.74112,-2.20861 -0.99162,-0.93152 -1.75787,-2.04333 -2.29875,-3.33545 -0.51084,-1.32215 -0.76626,-2.77954 -0.76626,-4.37215 l 0,-17.62381 4.95811,0 0,17.53366 c -1e-5,1.71281 0.616,3.1101 1.84802,4.19186 1.26205,1.08177 2.98988,1.62265 5.18347,1.62265 l 0.13523,0 c 2.25366,0 3.93641,-0.54088 5.04825,-1.62265 1.1118,-1.08176 1.6677,-2.47905 1.66772,-4.19186 l 0,-17.53366 4.95811,0 0,17.57874" />
        <path
           id="path2875"
           style=""
           d="m 703.01132,803.90438 c -10e-6,-2.70441 0.7963,-4.74775 2.3889,-6.13002 1.5926,-1.41229 3.75613,-2.11845 6.49061,-2.11846 l 5.94973,0 c 0.9315,10e-6 1.69776,-0.3155 2.29876,-0.94655 0.63101,-0.66106 0.94652,-1.45736 0.94654,-2.3889 -2e-5,-0.87141 -0.31553,-1.63766 -0.94654,-2.29876 -0.63105,-0.66106 -1.38228,-0.9916 -2.25369,-0.99162 l -14.87431,0 0,-4.95811 14.10806,0 c 1.56254,3e-5 2.89972,0.2254 4.01156,0.67611 1.14184,0.42071 2.07337,1.02169 2.79457,1.80294 0.72115,0.75126 1.24701,1.6377 1.57758,2.65935 0.36056,0.99164 0.54085,2.05839 0.54088,3.20023 -3e-5,0.99164 -0.1653,1.98326 -0.49581,2.97487 -0.30052,0.96158 -0.81135,1.83301 -1.53251,2.61427 -0.7212,0.78129 -1.65272,1.41232 -2.79456,1.89309 -1.11184,0.4808 -2.47908,0.72119 -4.10171,0.72118 l -6.08495,0 c -0.87143,10e-6 -1.60763,0.34558 -2.20861,1.0367 -0.57094,0.66109 -0.8564,1.44237 -0.8564,2.34383 l 0,8.3837 -4.9581,0 0,-8.47385" />
      </g>
      <g
         id="text3799"
         style="font-size:33.59813690000000008px;font-style:normal;font-variant:normal;font-weight:normal;font-stretch:normal;text-align:start;line-height:125%;writing-mode:lr-tb;text-anchor:start;fill:#edd400;fill-opacity:1;stroke:none;font-family:Nasalization;-inkscape-font-specification:Nasalization"
         transform="scale(1.1075016,0.90293324)">
        <path
           id="path2830"
           style="line-height:125%;letter-spacing:16.84020995999999926;font-family:Nasalization;-inkscape-font-specification:Nasalization;fill:#edd400"
           d="m 289.33966,1024.293 c -2e-5,2.0383 -0.59359,3.5838 -1.7807,4.6366 -1.16476,1.0303 -2.79986,1.5455 -4.90533,1.5455 l -10.8186,0 0,-3.6958 11.52416,0 c 0.64955,0 1.18712,-0.2464 1.61271,-0.7392 0.44796,-0.4927 0.67195,-1.0975 0.67196,-1.8143 -1e-5,-0.6719 -0.224,-1.2543 -0.67196,-1.7471 -0.42559,-0.5151 -0.96316,-0.7727 -1.61271,-0.7727 l -5.94687,0 c -1.23194,0 -2.27348,-0.1792 -3.12463,-0.5376 -0.82875,-0.3808 -1.51192,-0.8623 -2.04948,-1.4447 -0.51518,-0.5824 -0.89596,-1.2319 -1.14234,-1.9487 -0.22399,-0.7391 -0.33598,-1.4671 -0.33598,-2.1839 0,-0.8511 0.12319,-1.6463 0.36958,-2.3854 0.24638,-0.7616 0.63836,-1.4223 1.17593,-1.9823 0.53757,-0.5824 1.22073,-1.0304 2.04949,-1.344 0.85115,-0.3359 1.87029,-0.5039 3.05743,-0.5039 l 10.51622,0 0,3.6958 -11.08739,0 c -0.64957,0 -1.20954,0.2464 -1.67991,0.7391 -0.47037,0.4928 -0.70556,1.064 -0.70556,1.7135 0,0.6944 0.22399,1.288 0.67197,1.7807 0.47036,0.4704 1.05273,0.7056 1.7471,0.7056 l 5.84608,0 c 2.03827,0 3.65098,0.5264 4.83813,1.5791 1.18711,1.0304 1.78068,2.5535 1.7807,4.5693 l 0,0.1344" />
        <path
           id="path2832"
           style="line-height:125%;letter-spacing:16.84020995999999926;font-family:Nasalization;-inkscape-font-specification:Nasalization;fill:#edd400"
           d="m 318.14238,1030.4751 c -6.38365,0 -9.57547,-3.5054 -9.57547,-10.5162 l 0,-0.1008 c 0.0672,-6.9884 3.27021,-10.4826 9.60907,-10.4826 l 7.69397,0 0,3.6958 -8.63472,0 c -1.67992,0 -2.93425,0.5599 -3.76299,1.6799 -0.80636,1.1199 -1.20954,2.867 -1.20954,5.2413 0,4.5245 1.64631,6.7868 4.93893,6.7868 l 8.63472,0 0,3.6958 -7.69397,0" />
        <path
           id="path2834"
           style="line-height:125%;letter-spacing:16.84020995999999926;font-family:Nasalization;-inkscape-font-specification:Nasalization;fill:#edd400"
           d="m 355.36983,1013.0713 c -0.33599,0 -0.58238,0.2016 -0.73916,0.6047 l -3.595,10.0795 8.73552,0 -3.52781,-10.0459 c -0.0896,-0.2463 -0.2016,-0.4143 -0.33598,-0.5039 -0.1344,-0.09 -0.2688,-0.1344 -0.40318,-0.1344 l -0.13439,0 m -5.61089,14.38 -1.04154,3.0238 -3.93098,0 6.55163,-18.4118 c 0.33598,-0.9407 0.86235,-1.6239 1.57912,-2.0495 0.71675,-0.4255 1.5567,-0.6495 2.51986,-0.6719 0.94073,0 1.78068,0.224 2.51986,0.6719 0.73914,0.448 1.26551,1.1312 1.57911,2.0495 l 6.55164,18.4118 -3.93099,0 -1.07514,-3.0238 -11.32257,0" />
        <path
           id="path2836"
           style="line-height:125%;letter-spacing:16.84020995999999926;font-family:Nasalization;-inkscape-font-specification:Nasalization;fill:#edd400"
           d="m 406.3384,1025.4354 c -2e-5,0.7839 -0.14561,1.5007 -0.43677,2.1503 -0.26881,0.6271 -0.64959,1.1647 -1.14234,1.6127 -0.49279,0.4479 -1.07516,0.7951 -1.7471,1.0415 -0.64959,0.2464 -1.35515,0.3696 -2.11669,0.3696 -1.07515,0 -2.0495,-0.2912 -2.92304,-0.8736 -0.87356,-0.5823 -1.47833,-1.3887 -1.81429,-2.419 l -4.23337,-12.9689 c -0.1344,-0.4256 -0.30239,-0.7503 -0.50397,-0.9744 -0.1792,-0.2239 -0.43678,-0.3359 -0.77276,-0.3359 -1.05275,0 -1.57912,0.6159 -1.57911,1.8479 l 0,15.5895 -3.93098,0 0,-15.9927 c 0,-0.784 0.13439,-1.4895 0.40317,-2.1167 0.29119,-0.6495 0.68316,-1.1983 1.17594,-1.6463 0.49277,-0.448 1.06394,-0.7951 1.7135,-1.0415 0.67196,-0.2464 1.38872,-0.3696 2.15028,-0.3696 1.07514,0 2.04948,0.2912 2.92304,0.8735 0.87354,0.5824 1.47831,1.3888 1.8143,2.4191 l 4.23337,12.9689 c 0.13437,0.4256 0.29117,0.7503 0.47037,0.9743 0.20157,0.224 0.47036,0.336 0.80636,0.336 1.05272,0 1.57909,-0.616 1.57911,-1.8479 l 0,-15.6567 3.93098,0 0,16.0599" />
        <path
           id="path2838"
           style="line-height:125%;letter-spacing:16.84020995999999926;font-family:Nasalization;-inkscape-font-specification:Nasalization;fill:#edd400"
           d="m 429.88827,1026.7793 5.91327,0 c 1.67989,0 2.92302,-0.56 3.72939,-1.6799 0.82874,-1.1199 1.24312,-2.867 1.24313,-5.2413 -1e-5,-4.5245 -1.64632,-6.7868 -4.93892,-6.7868 l -5.94687,0 0,13.708 m 5.00612,-17.4038 c 6.38363,0 9.57545,3.5054 9.57547,10.5162 -2e-5,3.539 -0.81757,6.1932 -2.45266,7.9627 -1.61273,1.7471 -3.9982,2.6207 -7.15641,2.6207 l -8.66832,0 0,-21.0996 8.70192,0" />
        <path
           id="path2840"
           style="line-height:125%;letter-spacing:16.84020995999999926;font-family:Nasalization;-inkscape-font-specification:Nasalization;fill:#edd400"
           d="m 464.03151,1009.3755 3.69579,0 0,21.0996 -3.69579,0 0,-21.0996" />
        <path
           id="path2842"
           style="line-height:125%;letter-spacing:16.84020995999999926;font-family:Nasalization;-inkscape-font-specification:Nasalization;fill:#edd400"
           d="m 497.34217,1013.0713 c -0.336,0 -0.58238,0.2016 -0.73916,0.6047 l -3.595,10.0795 8.73551,0 -3.5278,-10.0459 c -0.0896,-0.2463 -0.2016,-0.4143 -0.33598,-0.5039 -0.13441,-0.09 -0.2688,-0.1344 -0.40318,-0.1344 l -0.13439,0 m -5.61089,14.38 -1.04154,3.0238 -3.93099,0 6.55164,-18.4118 c 0.33597,-0.9407 0.86234,-1.6239 1.57911,-2.0495 0.71675,-0.4255 1.55671,-0.6495 2.51986,-0.6719 0.94074,0 1.78069,0.224 2.51986,0.6719 0.73915,0.448 1.26552,1.1312 1.57912,2.0495 l 6.55163,18.4118 -3.93098,0 -1.07514,-3.0238 -11.32257,0" />
        <path
           id="path2844"
           style="line-height:125%;letter-spacing:16.84020995999999926;font-family:Nasalization;-inkscape-font-specification:Nasalization;fill:#edd400"
           d="m 548.31073,1025.4354 c -2e-5,0.7839 -0.14562,1.5007 -0.43678,2.1503 -0.2688,0.6271 -0.64958,1.1647 -1.14233,1.6127 -0.4928,0.4479 -1.07516,0.7951 -1.74711,1.0415 -0.64958,0.2464 -1.35514,0.3696 -2.11668,0.3696 -1.07516,0 -2.0495,-0.2912 -2.92304,-0.8736 -0.87356,-0.5823 -1.47833,-1.3887 -1.8143,-2.419 l -4.23336,-12.9689 c -0.1344,-0.4256 -0.30239,-0.7503 -0.50397,-0.9744 -0.1792,-0.2239 -0.43679,-0.3359 -0.77276,-0.3359 -1.05275,0 -1.57912,0.6159 -1.57911,1.8479 l 0,15.5895 -3.93099,0 0,-15.9927 c 0,-0.784 0.1344,-1.4895 0.40318,-2.1167 0.29118,-0.6495 0.68316,-1.1983 1.17594,-1.6463 0.49277,-0.448 1.06393,-0.7951 1.7135,-1.0415 0.67196,-0.2464 1.38872,-0.3696 2.15028,-0.3696 1.07514,0 2.04948,0.2912 2.92304,0.8735 0.87354,0.5824 1.47831,1.3888 1.8143,2.4191 l 4.23337,12.9689 c 0.13437,0.4256 0.29116,0.7503 0.47037,0.9743 0.20157,0.224 0.47036,0.336 0.80635,0.336 1.05273,0 1.5791,-0.616 1.57912,-1.8479 l 0,-15.6567 3.93098,0 0,16.0599" />
        <path
           id="path2846"
           style="line-height:125%;letter-spacing:16.84020995999999926;font-family:Nasalization;-inkscape-font-specification:Nasalization;fill:#edd400"
           d="m 580.05855,1026.7793 c 3.2926,0 4.93891,-2.2623 4.93893,-6.7868 -2e-5,-2.3743 -0.4144,-4.1214 -1.24314,-5.2413 -0.80637,-1.12 -2.0495,-1.6799 -3.72939,-1.6799 l -3.4942,0 c -1.67992,0 -2.93425,0.5599 -3.763,1.6799 -0.80636,1.1199 -1.20953,2.867 -1.20953,5.2413 0,4.5245 1.6463,6.7868 4.93893,6.7868 l 3.5614,0 m -0.97435,-17.4038 c 6.33883,0 9.54185,3.4942 9.60907,10.4826 l 0,0.1008 c -2e-5,7.0108 -3.19184,10.5162 -9.57547,10.5162 l -1.6799,0 c -6.38366,0 -9.57548,-3.5054 -9.57547,-10.5162 l 0,-0.1008 c 0.0224,-3.4718 0.82875,-6.0813 2.41906,-7.8284 1.59031,-1.7695 3.98697,-2.6542 7.19,-2.6542 l 1.61271,0" />
      </g>
    </g>
  </g>
</svg>
